<svg width="150" height="36" viewBox="0 0 150 36" fill="none" xmlns="http://www.w3.org/2000/svg">
<g clip-path="url(#clip0_6103_342)">
<path d="M34.7427 15.8812C34.7427 11.9424 35.7524 8.81408 37.772 6.49643C39.7915 4.17878 42.7054 3.01996 46.5137 3.01996C48.7063 3.01996 50.5643 3.35676 52.0876 4.03036C53.6109 4.70397 54.6841 5.68012 55.3076 6.95881C55.7228 7.80368 55.6533 8.37456 55.0996 8.6714L53.0223 9.7674C52.2953 10.1556 51.6952 9.93868 51.222 9.11667C50.922 8.59145 50.3623 8.11764 49.543 7.69523C48.7351 7.27277 47.7831 7.06157 46.6868 7.06157C44.2633 7.06157 42.5669 7.82079 41.5976 9.3393C40.6282 10.8463 40.1435 13.027 40.1435 15.8812C40.1435 18.7355 40.6282 20.9218 41.5976 22.4403C42.5669 23.9474 44.2633 24.7009 46.6868 24.7009C47.9908 24.7009 49.0871 24.4098 49.9757 23.8274C50.8759 23.2452 51.4991 22.6915 51.8453 22.1663C52.4107 21.31 53.0108 21.0931 53.6455 21.5155L55.7228 22.8856C56.2881 23.2623 56.346 23.8332 55.896 24.5981C55.2265 25.7398 54.0783 26.716 52.4511 27.5266C50.8239 28.3372 48.8448 28.7425 46.5137 28.7425C42.7631 28.7425 39.8608 27.5837 37.8066 25.266C35.764 22.9483 34.7427 19.8201 34.7427 15.8812Z" fill="white"/>
<path d="M60.129 28.1602C59.4369 28.1602 59.0906 27.8177 59.0906 27.1327V6.90748C59.0906 6.39369 59.2119 5.92562 59.454 5.50318L60.7869 3.19124C61.0411 2.75739 61.3411 2.54047 61.6869 2.54047H62.899C63.5911 2.54047 63.9375 2.88297 63.9375 3.568V27.1327C63.9375 27.8177 63.5911 28.1602 62.899 28.1602H60.129Z" fill="white"/>
<path d="M66.6133 19.1693C66.6133 16.2579 67.3688 13.9745 68.8809 12.3191C70.4041 10.6636 72.6657 9.83588 75.6662 9.83588C78.6668 9.83588 80.9228 10.6636 82.4344 12.3191C83.9581 13.9745 84.7197 16.2579 84.7197 19.1693C84.7197 22.0806 83.9581 24.364 82.4344 26.0195C80.9228 27.6749 78.6668 28.5027 75.6662 28.5027C72.6657 28.5027 70.4041 27.6749 68.8809 26.0195C67.3688 24.364 66.6133 22.0806 66.6133 19.1693ZM71.737 19.1693C71.737 21.3385 72.0717 22.8798 72.7407 23.7932C73.4217 24.6951 74.3967 25.1461 75.6662 25.1461C76.9357 25.1461 77.9052 24.6951 78.5747 23.7932C79.2552 22.8798 79.596 21.3385 79.596 19.1693C79.596 17 79.2552 15.4645 78.5747 14.5625C77.9052 13.6492 76.9357 13.1925 75.6662 13.1925C74.3967 13.1925 73.4217 13.6492 72.7407 14.5625C72.0717 15.4645 71.737 17 71.737 19.1693Z" fill="white"/>
<path d="M87.3607 20.6935V11.2059C87.3607 10.5209 87.7065 10.1784 88.3991 10.1784H91.1686C91.8613 10.1784 92.2076 10.5209 92.2076 11.2059V19.4605C92.2076 21.9493 92.3802 23.5192 92.7265 24.1699C93.0728 24.8207 93.7997 25.1461 94.9076 25.1461C96.085 25.1461 96.9795 24.6837 97.591 23.759C98.2026 22.8228 98.5081 20.8876 98.5081 17.9534V11.2059C98.5081 10.5209 98.8545 10.1784 99.5471 10.1784H102.317C103.009 10.1784 103.355 10.5209 103.355 11.2059V27.1327C103.355 27.8177 103.009 28.1602 102.317 28.1602H99.5813C98.8892 28.1602 98.5429 27.8177 98.5429 27.1327V26.1394H98.4734C97.9429 27.0414 97.2679 27.6636 96.4484 28.0061C95.6289 28.3372 94.6594 28.5027 93.5405 28.5027C91.7747 28.5027 90.3034 27.9433 89.126 26.8244C87.9491 25.7056 87.3607 23.6619 87.3607 20.6935Z" fill="white"/>
<path d="M106.031 19.1693C106.031 16.6576 106.579 14.4769 107.675 12.6274C108.783 10.7664 110.693 9.8359 113.405 9.8359C114.443 9.8359 115.332 9.98432 116.071 10.2812C116.809 10.578 117.479 11.2174 118.079 12.1992H118.148C118.102 11.7425 118.079 11.2858 118.079 10.8292V3.91047C118.079 3.22545 118.425 2.88293 119.117 2.88293H121.887C122.579 2.88293 122.926 3.22545 122.926 3.91047V27.1327C122.926 27.8177 122.579 28.1602 121.887 28.1602H119.152C118.575 28.1602 118.263 27.8177 118.217 27.1327L118.148 26.1394H118.079C117.479 27.1213 116.809 27.7606 116.071 28.0574C115.332 28.3543 114.443 28.5027 113.405 28.5027C110.693 28.5027 108.783 27.5779 107.675 25.7284C106.579 23.8674 106.031 21.6811 106.031 19.1693ZM111.154 19.1693C111.154 20.996 111.391 22.4517 111.864 23.5363C112.349 24.6095 113.37 25.1461 114.928 25.1461C115.793 25.1461 116.532 24.6666 117.144 23.7076C117.767 22.7371 118.079 21.4813 118.079 19.94V18.3987C118.079 16.8573 117.767 15.6072 117.144 14.6482C116.532 13.6777 115.793 13.1925 114.928 13.1925C113.37 13.1925 112.349 13.7348 111.864 14.8194C111.391 15.8926 111.154 17.3426 111.154 19.1693Z" fill="white"/>
<path d="M127.609 28.1602C126.917 28.1602 126.57 27.8177 126.57 27.1327V6.90748C126.57 6.39369 126.692 5.92562 126.934 5.50318L128.267 3.19124C128.521 2.75739 128.821 2.54047 129.167 2.54047H130.379C131.071 2.54047 131.417 2.88297 131.417 3.568V27.1327C131.417 27.8177 131.071 28.1602 130.379 28.1602H127.609Z" fill="white"/>
<path d="M133.937 11.5142C133.625 10.6237 133.815 10.1784 134.508 10.1784H137.607C138.137 10.1784 138.484 10.4696 138.645 11.0518L141.259 20.625C141.386 21.0702 141.496 21.6468 141.588 22.3546C141.692 23.0511 141.744 23.4963 141.744 23.6904H141.848C141.986 23.0854 142.084 22.6058 142.142 22.2519C142.211 21.8866 142.39 21.1844 142.679 20.1455L145.154 11.0518C145.315 10.4696 145.662 10.1784 146.193 10.1784H149.291C149.972 10.1784 150.162 10.6237 149.862 11.5142L144.029 28.8795C143.348 30.9117 142.511 32.4987 141.519 33.6404C140.526 34.7821 139.147 35.3529 137.382 35.3529C136.412 35.3529 135.546 35.273 134.785 35.1132C134.346 35.0218 134.179 34.725 134.283 34.2226L134.664 32.3388C134.768 31.8479 135.062 31.6767 135.546 31.8251C135.904 31.9392 136.239 31.9963 136.551 31.9963C137.485 31.9963 138.195 31.5568 138.68 30.6776C139.176 29.7985 139.505 29.045 139.666 28.4171L139.718 28.1602L133.937 11.5142Z" fill="white"/>
<path d="M7.29834 20.7582L13.6661 24.4036V17.1121L7.29834 13.4662V20.7582Z" fill="white"/>
<path d="M8.2677 11.801L14.6354 15.447L21.0032 11.801L14.6354 8.15552L8.2677 11.801Z" fill="white"/>
<path d="M28.7806 7.89656L15.6049 0.352966V6.49038L23.4266 10.9684C23.7266 11.1401 23.9113 11.4574 23.9113 11.801V20.7579L29.2712 23.8264V8.73929C29.2713 8.39165 29.0842 8.07036 28.7806 7.89656Z" fill="white"/>
<path d="M15.1205 26.9009C14.9706 26.9867 14.8032 27.0297 14.6358 27.0297C14.4685 27.0297 14.3011 26.9867 14.1512 26.9009L6.32926 22.4229L0.96936 25.4914L14.1452 33.035C14.4488 33.2088 14.823 33.2088 15.1265 33.035L28.3024 25.4914L22.9425 22.4229L15.1205 26.9009Z" fill="white"/>
<path d="M5.35991 11.8009C5.35991 11.4575 5.54465 11.1401 5.8446 10.9684L13.6664 6.49038V0.352966L0.490637 7.89656C0.187026 8.07036 0 8.39165 0 8.73929V23.8265L5.35991 20.758V11.8009Z" fill="white"/>
<path d="M21.9726 20.7582V13.4662L15.6049 17.1121V24.4036L21.9726 20.7582Z" fill="white"/>
</g>
<defs>
<clipPath id="clip0_6103_342">
<rect width="150" height="35" fill="white" transform="translate(0 0.352966)"/>
</clipPath>
</defs>
</svg>
