<svg width="150" height="35" viewBox="0 0 150 35" fill="none" xmlns="http://www.w3.org/2000/svg">
<g clip-path="url(#clip0_6103_370)">
<path d="M34.7427 15.5283C34.7427 11.5894 35.7524 8.46112 37.772 6.14346C39.7915 3.82581 42.7054 2.66699 46.5137 2.66699C48.7063 2.66699 50.5643 3.00379 52.0876 3.6774C53.6109 4.351 54.6841 5.32716 55.3076 6.60584C55.7228 7.45071 55.6533 8.02159 55.0996 8.31844L53.0223 9.41443C52.2953 9.8026 51.6952 9.58571 51.222 8.7637C50.922 8.23848 50.3623 7.76467 49.543 7.34227C48.7351 6.9198 47.7831 6.7086 46.6868 6.7086C44.2633 6.7086 42.5669 7.46783 41.5976 8.98633C40.6282 10.4934 40.1435 12.674 40.1435 15.5283C40.1435 18.3825 40.6282 20.5689 41.5976 22.0873C42.5669 23.5944 44.2633 24.3479 46.6868 24.3479C47.9908 24.3479 49.0871 24.0568 49.9757 23.4745C50.8759 22.8922 51.4991 22.3385 51.8453 21.8133C52.4107 20.957 53.0108 20.7401 53.6455 21.1626L55.7228 22.5326C56.2881 22.9093 56.346 23.4802 55.896 24.2451C55.2265 25.3868 54.0783 26.363 52.4511 27.1736C50.8239 27.9842 48.8448 28.3895 46.5137 28.3895C42.7631 28.3895 39.8608 27.2307 37.8066 24.913C35.764 22.5954 34.7427 19.4671 34.7427 15.5283Z" fill="white"/>
<path d="M60.129 27.8073C59.4369 27.8073 59.0906 27.4648 59.0906 26.7798V6.55452C59.0906 6.04073 59.2119 5.57266 59.454 5.15022L60.7869 2.83827C61.0411 2.40442 61.3411 2.1875 61.6869 2.1875H62.899C63.5911 2.1875 63.9375 2.53001 63.9375 3.21503V26.7798C63.9375 27.4648 63.5911 27.8073 62.899 27.8073H60.129Z" fill="white"/>
<path d="M66.6133 18.8164C66.6133 15.905 67.3688 13.6216 68.8809 11.9662C70.4041 10.3107 72.6657 9.48297 75.6662 9.48297C78.6668 9.48297 80.9228 10.3107 82.4344 11.9662C83.9581 13.6216 84.7197 15.905 84.7197 18.8164C84.7197 21.7277 83.9581 24.0111 82.4344 25.6666C80.9228 27.322 78.6668 28.1498 75.6662 28.1498C72.6657 28.1498 70.4041 27.322 68.8809 25.6666C67.3688 24.0111 66.6133 21.7277 66.6133 18.8164ZM71.737 18.8164C71.737 20.9856 72.0717 22.5269 72.7407 23.4403C73.4217 24.3422 74.3967 24.7932 75.6662 24.7932C76.9357 24.7932 77.9052 24.3422 78.5747 23.4403C79.2552 22.5269 79.596 20.9856 79.596 18.8164C79.596 16.6471 79.2552 15.1116 78.5747 14.2096C77.9052 13.2963 76.9357 12.8396 75.6662 12.8396C74.3967 12.8396 73.4217 13.2963 72.7407 14.2096C72.0717 15.1116 71.737 16.6471 71.737 18.8164Z" fill="white"/>
<path d="M87.3607 20.3406V10.853C87.3607 10.168 87.7065 9.8255 88.3991 9.8255H91.1686C91.8613 9.8255 92.2076 10.168 92.2076 10.853V19.1076C92.2076 21.5964 92.3802 23.1663 92.7265 23.817C93.0728 24.4678 93.7997 24.7932 94.9076 24.7932C96.085 24.7932 96.9795 24.3308 97.591 23.406C98.2026 22.4699 98.5081 20.5347 98.5081 17.6005V10.853C98.5081 10.168 98.8545 9.8255 99.5471 9.8255H102.317C103.009 9.8255 103.355 10.168 103.355 10.853V26.7798C103.355 27.4648 103.009 27.8073 102.317 27.8073H99.5813C98.8892 27.8073 98.5429 27.4648 98.5429 26.7798V25.7865H98.4734C97.9429 26.6884 97.2679 27.3107 96.4484 27.6532C95.6289 27.9843 94.6594 28.1498 93.5405 28.1498C91.7747 28.1498 90.3034 27.5904 89.126 26.4715C87.9491 25.3526 87.3607 23.309 87.3607 20.3406Z" fill="white"/>
<path d="M106.031 18.8164C106.031 16.3047 106.579 14.124 107.675 12.2745C108.783 10.4135 110.693 9.483 113.405 9.483C114.443 9.483 115.332 9.63142 116.071 9.92826C116.809 10.2251 117.479 10.8645 118.079 11.8463H118.148C118.102 11.3896 118.079 10.9329 118.079 10.4763V3.55756C118.079 2.87254 118.425 2.53003 119.117 2.53003H121.887C122.579 2.53003 122.926 2.87254 122.926 3.55756V26.7798C122.926 27.4648 122.579 27.8073 121.887 27.8073H119.152C118.575 27.8073 118.263 27.4648 118.217 26.7798L118.148 25.7865H118.079C117.479 26.7683 116.809 27.4077 116.071 27.7045C115.332 28.0014 114.443 28.1498 113.405 28.1498C110.693 28.1498 108.783 27.225 107.675 25.3755C106.579 23.5145 106.031 21.3281 106.031 18.8164ZM111.154 18.8164C111.154 20.6431 111.391 22.0988 111.864 23.1834C112.349 24.2566 113.37 24.7932 114.928 24.7932C115.793 24.7932 116.532 24.3137 117.144 23.3546C117.767 22.3842 118.079 21.1284 118.079 19.5871V18.0457C118.079 16.5044 117.767 15.2543 117.144 14.2953C116.532 13.3248 115.793 12.8396 114.928 12.8396C113.37 12.8396 112.349 13.3819 111.864 14.4665C111.391 15.5397 111.154 16.9897 111.154 18.8164Z" fill="white"/>
<path d="M127.609 27.8073C126.917 27.8073 126.57 27.4648 126.57 26.7798V6.55452C126.57 6.04073 126.692 5.57266 126.934 5.15022L128.267 2.83827C128.521 2.40442 128.821 2.1875 129.167 2.1875H130.379C131.071 2.1875 131.417 2.53001 131.417 3.21503V26.7798C131.417 27.4648 131.071 27.8073 130.379 27.8073H127.609Z" fill="white"/>
<path d="M133.937 11.1613C133.625 10.2708 133.816 9.8255 134.508 9.8255H137.607C138.137 9.8255 138.484 10.1167 138.645 10.6989L141.259 20.2721C141.386 20.7173 141.496 21.2939 141.588 22.0017C141.692 22.6982 141.744 23.1434 141.744 23.3375H141.848C141.986 22.7325 142.084 22.2529 142.142 21.899C142.211 21.5337 142.39 20.8315 142.679 19.7926L145.154 10.6989C145.315 10.1167 145.662 9.8255 146.193 9.8255H149.291C149.972 9.8255 150.162 10.2708 149.862 11.1613L144.029 28.5265C143.348 30.5588 142.511 32.1458 141.519 33.2875C140.526 34.4292 139.147 35 137.382 35C136.412 35 135.547 34.9201 134.785 34.7603C134.347 34.6689 134.179 34.3721 134.283 33.8697L134.664 31.9859C134.768 31.495 135.062 31.3238 135.547 31.4722C135.904 31.5863 136.239 31.6434 136.551 31.6434C137.486 31.6434 138.195 31.2039 138.68 30.3247C139.176 29.4456 139.505 28.6921 139.667 28.0642L139.718 27.8073L133.937 11.1613Z" fill="white"/>
<path d="M7.29834 20.4052L13.6661 24.0507V16.7591L7.29834 13.1132V20.4052Z" fill="white"/>
<path d="M8.2677 11.4481L14.6354 15.0941L21.0032 11.4481L14.6354 7.80261L8.2677 11.4481Z" fill="white"/>
<path d="M28.7806 7.54359L15.6049 0V6.13741L23.4266 10.6154C23.7266 10.7872 23.9113 11.1045 23.9113 11.448V20.4049L29.2712 23.4735V8.38633C29.2713 8.03868 29.0842 7.71739 28.7806 7.54359Z" fill="white"/>
<path d="M15.1205 26.548C14.9706 26.6338 14.8032 26.6768 14.6358 26.6768C14.4685 26.6768 14.3011 26.6338 14.1512 26.548L6.32926 22.0699L0.96936 25.1384L14.1452 32.682C14.4488 32.8558 14.823 32.8558 15.1265 32.682L28.3024 25.1384L22.9425 22.0699L15.1205 26.548Z" fill="white"/>
<path d="M5.35991 11.448C5.35991 11.1045 5.54465 10.7872 5.8446 10.6154L13.6664 6.13741V0L0.490637 7.54359C0.187026 7.71739 0 8.03868 0 8.38633V23.4735L5.35991 20.4051V11.448Z" fill="white"/>
<path d="M21.9726 20.4052V13.1132L15.6049 16.7591V24.0507L21.9726 20.4052Z" fill="white"/>
</g>
<defs>
<clipPath id="clip0_6103_370">
<rect width="150" height="35" fill="white"/>
</clipPath>
</defs>
</svg>
