<svg width="36" height="40" viewBox="0 0 36 40" fill="none" xmlns="http://www.w3.org/2000/svg">
<path d="M8.82275 24.875L16.5206 29.319V20.4303L8.82275 15.9857V24.875Z" fill="#6B41FF"/>
<path d="M9.99463 13.9558L17.6925 18.4004L25.3905 13.9558L17.6925 9.51172L9.99463 13.9558Z" fill="#6B41FF"/>
<path d="M34.7928 9.19602L18.8647 0V7.48182L28.3204 12.9408C28.683 13.1501 28.9064 13.5369 28.9064 13.9557V24.8747L35.3859 28.6153V10.2234C35.386 9.79955 35.1598 9.40789 34.7928 9.19602Z" fill="#6B41FF"/>
<path d="M18.2791 32.3633C18.0978 32.4679 17.8955 32.5203 17.6932 32.5203C17.4908 32.5203 17.2885 32.4679 17.1072 32.3633L7.65142 26.9043L1.17188 30.645L17.1 39.841C17.4671 40.0529 17.9194 40.0529 18.2864 39.841L34.2145 30.645L27.735 26.9043L18.2791 32.3633Z" fill="#6B41FF"/>
<path d="M6.47955 13.9556C6.47955 13.537 6.70288 13.1501 7.06548 12.9408L16.5212 7.48182V0L0.593127 9.19602C0.226094 9.40789 0 9.79955 0 10.2234V28.6154L6.47955 24.8748V13.9556Z" fill="#6B41FF"/>
<path d="M26.5626 24.875V15.9857L18.8647 20.4303V29.319L26.5626 24.875Z" fill="#6B41FF"/>
</svg>
