<svg width="40" height="40" viewBox="0 0 40 40" fill="none" xmlns="http://www.w3.org/2000/svg">
<path d="M29.287 25.4501C29.5534 26.0798 29.9237 26.6501 30.3808 27.1415V32.7782C30.3808 34.2212 29.2065 35.3962 27.7636 35.3962H14.2261C12.7823 35.3962 11.6081 34.2212 11.6081 32.7782V30.1196C9.32373 29.9181 7.01982 29.3431 6.1542 27.1774H5.47139V28.0149C5.47139 28.3165 5.22686 28.5618 4.92451 28.5618H1.09326C0.790918 28.5618 0.546387 28.3165 0.546387 28.0149V17.3095C0.546387 17.0071 0.790918 16.7626 1.09326 16.7626H4.92451C5.22686 16.7626 5.47139 17.0071 5.47139 17.3095V18.1446H5.83701C6.00498 16.2243 7.18545 14.7595 9.35498 13.7845C10.0589 13.4681 10.8214 13.2188 11.6081 13.0149V7.22432C11.6081 5.77979 12.7823 4.604 14.2261 4.604H27.7636C28.7909 4.604 29.7034 5.21807 30.1276 6.10557C29.8073 6.32197 29.5097 6.56963 29.2386 6.84307C29.0683 6.18447 28.4612 5.69854 27.7636 5.69854H26.1003V6.80557C26.1003 7.47588 25.5558 8.02119 24.887 8.02119H17.3792C16.7104 8.02119 16.1659 7.47588 16.1659 6.80557V5.69854H14.2261C13.3854 5.69854 12.7019 6.38291 12.7019 7.22432V12.7587C13.7472 12.5399 14.8065 12.3798 15.8026 12.229C16.1831 12.1712 16.5425 12.1165 16.887 12.061C17.7784 11.9157 18.6136 12.4978 18.7862 13.3868L18.9082 14.0142C19.1465 15.229 18.341 16.4306 17.1129 16.6931L13.2746 17.5071C13.2629 17.6938 13.2387 17.886 13.2027 18.0829C13.1097 18.5868 12.9394 19.1071 12.7019 19.6126V29.5946V29.6313V31.0993H29.2871V25.4501H29.287ZM11.608 29.0212V21.3024C11.0244 21.9665 10.3612 22.4345 9.71115 22.6212C9.50725 22.679 9.30803 22.7087 9.1174 22.7087C8.82443 22.7087 8.55021 22.6399 8.30646 22.5048C8.0424 22.3579 7.94709 22.0251 8.09396 21.761C8.24006 21.497 8.57287 21.4017 8.83693 21.5485C8.98303 21.629 9.176 21.636 9.40881 21.5696C10.1166 21.3665 10.9416 20.5696 11.5127 19.5384C11.8151 18.9962 12.0268 18.4251 12.1268 17.8853C12.1783 17.6017 12.1979 17.3345 12.1846 17.0938C12.1698 16.8243 12.3533 16.5845 12.6174 16.5282L16.8846 15.6228C17.5322 15.4845 17.9588 14.8571 17.8346 14.2235L17.7127 13.5962C17.6541 13.2962 17.3627 13.0923 17.0627 13.1407C16.7112 13.1978 16.3494 13.2524 15.9658 13.3103C14.7908 13.4884 13.5252 13.679 12.3174 13.9649C12.2947 13.9704 12.2713 13.9759 12.2487 13.9813C11.3846 14.1892 10.551 14.4462 9.80412 14.7821C7.80959 15.6782 6.89006 16.9188 6.91115 18.6853C6.91271 18.8313 6.85568 18.972 6.75334 19.0759C6.65021 19.1798 6.51037 19.2384 6.36428 19.2384H5.47131V26.0837H6.54318C6.78615 26.0837 6.99943 26.2431 7.06818 26.4759C7.51826 28.0017 8.84795 28.7571 11.608 29.0212ZM33.4042 6.19697C36.0339 6.19697 38.1737 8.33682 38.1737 10.9673C38.1737 13.5962 36.0339 15.7345 33.4042 15.7345C32.6105 15.7345 31.8565 15.547 31.1636 15.1774C31.0839 15.1345 30.9956 15.1126 30.9058 15.1126C30.8948 15.1126 30.8831 15.1126 30.8722 15.1134L29.8144 15.1798L29.7776 15.1821L28.4112 15.2673L29.1925 13.6931C29.2706 13.5353 29.2683 13.3493 29.1855 13.1931C28.8245 12.5118 28.6339 11.7423 28.6339 10.9673C28.6339 8.33682 30.7737 6.19697 33.4042 6.19697ZM30.5448 11.0501C30.5448 11.7556 31.119 12.3298 31.8245 12.3298C31.9878 12.3298 32.144 12.2978 32.2878 12.2415L33.0112 12.9634C32.955 13.1079 32.923 13.2642 32.923 13.4282C32.923 14.1337 33.4964 14.7071 34.2019 14.7071C34.9073 14.7071 35.4815 14.1337 35.4815 13.4282C35.4815 12.7228 34.9073 12.1485 34.2019 12.1485C34.0378 12.1485 33.8808 12.1813 33.737 12.2376L33.0144 11.5165C33.0714 11.372 33.1034 11.2149 33.1034 11.0501C33.1034 10.886 33.0714 10.729 33.0144 10.5845L33.737 9.8626C33.8808 9.91963 34.0378 9.95166 34.2019 9.95166C34.9073 9.95166 35.4815 9.37744 35.4815 8.67275C35.4815 7.96729 34.9073 7.39307 34.2019 7.39307C33.4964 7.39307 32.923 7.96729 32.923 8.67275C32.923 8.83682 32.955 8.99307 33.0112 9.13682L32.2878 9.85947C32.144 9.80322 31.9878 9.77119 31.8245 9.77119C31.119 9.77119 30.5448 10.3446 30.5448 11.0501ZM20.6823 23.6845L20.2667 23.7688L20.987 27.3306C21.0472 27.6267 20.8558 27.9149 20.5597 27.9751L18.6597 28.3603C18.6237 28.3673 18.587 28.3712 18.5511 28.3712C18.444 28.3712 18.3386 28.3399 18.2487 28.2798C18.1276 28.2001 18.0433 28.0751 18.0144 27.9329L17.262 24.2142C16.7823 24.1563 16.319 23.986 15.9034 23.7103C15.2019 23.2446 14.7237 22.5368 14.5581 21.7165L14.5448 21.6548C14.2003 19.9517 15.3034 18.2892 17.0026 17.9446L19.4237 17.4563L22.7487 14.8587C22.7565 14.1946 23.2261 13.604 23.8995 13.4688C24.2745 13.3931 24.6573 13.4681 24.9776 13.6813C25.2972 13.8938 25.5144 14.2173 25.5894 14.5915L27.4776 23.9313C27.5542 24.3048 27.4793 24.6876 27.2667 25.0071C27.055 25.3267 26.7323 25.5446 26.3581 25.6204C26.262 25.6399 26.1659 25.6501 26.0706 25.6501C25.7917 25.6501 25.519 25.5681 25.2808 25.4103C25.0456 25.2548 24.8659 25.0392 24.7565 24.7876L20.6823 23.6845ZM20.2612 18.1899L21.1706 22.6829L24.4792 23.579L22.962 16.079L20.2612 18.1899ZM19.194 23.986L18.3659 24.154L18.9784 27.179L19.8065 27.0118L19.194 23.986ZM38.9401 25.3009C38.3659 26.4384 37.3839 27.2845 36.1737 27.6837C34.9644 28.0821 33.6714 27.9853 32.5339 27.4118C31.3972 26.8376 30.5511 25.8556 30.1519 24.6454C29.905 23.8978 29.8472 23.1274 29.9792 22.3556C30.0089 22.1821 29.9526 22.0048 29.8292 21.879L28.5933 20.6298L30.98 20.0048C31.0784 19.979 31.1667 19.9267 31.237 19.8532C31.7737 19.2923 32.4487 18.8673 33.1901 18.6235C34.3995 18.2251 35.6925 18.3212 36.8292 18.8946C37.9667 19.4681 38.8128 20.4509 39.2112 21.6618C39.6105 22.8712 39.5136 24.1634 38.9401 25.3009ZM36.9362 24.972C36.9362 24.6696 36.6909 24.4251 36.3894 24.4251H32.6401C32.3378 24.4251 32.0925 24.6696 32.0925 24.972C32.0925 25.2735 32.3378 25.5188 32.6401 25.5188H36.3894C36.6909 25.5188 36.9362 25.2735 36.9362 24.972ZM36.9362 23.154C36.9362 22.8517 36.6909 22.6063 36.3894 22.6063H32.6401C32.3378 22.6063 32.0925 22.8517 32.0925 23.154C32.0925 23.4556 32.3378 23.7009 32.6401 23.7009H36.3894C36.6909 23.7009 36.9362 23.4556 36.9362 23.154ZM36.9362 21.3376C36.9362 21.0353 36.6909 20.7907 36.3894 20.7907H32.6401C32.3378 20.7907 32.0925 21.0353 32.0925 21.3376C32.0925 21.6399 32.3378 21.8845 32.6401 21.8845H36.3894C36.6909 21.8845 36.9362 21.6399 36.9362 21.3376Z" fill="white"/>
</svg>
