<svg width="40" height="40" viewBox="0 0 40 40" fill="none" xmlns="http://www.w3.org/2000/svg">
<path d="M36.8506 13.75H32.1924C30.9033 11.6504 30.9033 9.59961 32.1924 7.5H36.8506C36.8591 7.50122 36.8689 7.50122 36.875 7.5C37.2205 7.5 37.5 7.22046 37.5 6.875C37.5 6.74194 37.4585 6.61743 37.3877 6.51611C36.5088 4.10645 34.2236 2.5 31.6223 2.5C31.4709 2.5 30.7239 2.50732 30.5566 2.51831C27.9178 2.70775 26.3927 4.30466 25.2509 5.84991C24.4887 6.88141 23.2955 7.5 22.0129 7.5H5.625C3.89908 7.5 2.5 8.89908 2.5 10.625C2.5 12.2962 3.81538 13.6492 5.46562 13.7339C7.39395 12.1835 9.83864 11.25 12.5 11.25C15.171 11.25 17.6242 12.1894 19.5557 13.7499H22.0129C23.2946 13.7499 24.487 14.3679 25.2489 15.3985C26.3909 16.9434 27.9162 18.5421 30.5579 18.7317C30.7239 18.7427 31.4709 18.75 31.6223 18.75H31.6479C34.281 18.75 36.6101 17.0715 37.4438 14.5728C37.5073 14.3823 37.4756 14.1724 37.3572 14.01C37.24 13.8464 37.052 13.75 36.8506 13.75Z" fill="white"/>
<path d="M26.7233 32.9733L22.8661 29.1161C22.3779 28.6279 21.5865 28.6279 21.0983 29.1161L20.7323 29.4822L20.1662 28.9162C21.6215 27.1794 22.5 24.9432 22.5 22.5C22.5 16.9772 18.0228 12.5 12.5 12.5C6.97716 12.5 2.5 16.9772 2.5 22.5C2.5 28.0228 6.97716 32.5 12.5 32.5C14.9432 32.5 17.1794 31.6215 18.9162 30.1662L19.4823 30.7322L19.1161 31.0983C18.6279 31.5865 18.6279 32.3779 19.1161 32.8661L22.9733 36.7233C24.0089 37.7589 25.6878 37.7589 26.7233 36.7233C27.7589 35.6878 27.7589 34.0089 26.7233 32.9733ZM12.5 31.25C7.67502 31.25 3.75 27.3251 3.75 22.5C3.75 17.6749 7.67502 13.75 12.5 13.75C17.3251 13.75 21.25 17.6749 21.25 22.5C21.25 27.3251 17.3251 31.25 12.5 31.25Z" fill="white"/>
<path d="M12.5 15C8.36479 15 5 18.3647 5 22.5C5 23.3579 5.15198 24.1793 5.41847 24.9477L8.93311 21.4331C9.17725 21.189 9.57275 21.189 9.81689 21.4331L11.875 23.4912L15.3662 20H14.375C14.0295 20 13.75 19.7205 13.75 19.375C13.75 19.0295 14.0295 18.75 14.375 18.75H16.875C17.2205 18.75 17.5 19.0295 17.5 19.375V21.875C17.5 22.2205 17.2205 22.5 16.875 22.5C16.5295 22.5 16.25 22.2205 16.25 21.875V20.8838L12.3169 24.8169C12.0728 25.061 11.6772 25.061 11.4331 24.8169L9.375 22.7588L5.96535 26.1684C7.25258 28.4519 9.69742 30 12.5 30C16.6353 30 20 26.6353 20 22.5C20 18.3647 16.6353 15 12.5 15Z" fill="white"/>
</svg>
