<svg width="18" height="18" viewBox="0 0 18 18" fill="none" xmlns="http://www.w3.org/2000/svg">
<g opacity="0.32">
<path opacity="0.992" fill-rule="evenodd" clip-rule="evenodd" d="M8.66872 0C12.1733 0.00584184 14.8645 1.47154 16.7424 4.39708C18.1585 6.91816 18.3802 9.54163 17.4075 12.2675C16.0465 15.4631 13.6509 17.3537 10.2206 17.9394C6.75581 18.2908 3.94145 17.1146 1.7775 14.4106C-0.093153 11.7358 -0.487289 8.85373 0.595087 5.76424C1.52009 3.49668 3.09048 1.84009 5.30625 0.794431C6.38379 0.32483 7.5046 0.060022 8.66872 0ZM13.4723 5.32084C13.947 5.32232 14.101 5.54402 13.9341 5.98594C11.8896 8.32611 9.84496 10.6663 7.80039 13.0065C7.61154 13.1777 7.40831 13.1962 7.19071 13.0619C6.29773 11.8733 5.40479 10.6848 4.51182 9.49622C4.35663 9.22659 4.41205 9.01106 4.67809 8.84959C4.78894 8.82494 4.89979 8.82494 5.01064 8.84959C5.68805 9.3053 6.3655 9.76104 7.04291 10.2167C7.22681 10.3521 7.4239 10.3767 7.63411 10.2906C9.57592 8.62464 11.522 6.96801 13.4723 5.32084Z" fill="url(#paint0_linear_4037_705)"/>
</g>
<defs>
<linearGradient id="paint0_linear_4037_705" x1="18.0016" y1="9" x2="-3.25503e-09" y2="9" gradientUnits="userSpaceOnUse">
<stop stop-color="#A121CA"/>
<stop offset="1" stop-color="#7B1FE4"/>
</linearGradient>
</defs>
</svg>
