<svg width="44" height="44" viewBox="0 0 44 44" fill="none" xmlns="http://www.w3.org/2000/svg">
<path fill-rule="evenodd" clip-rule="evenodd" d="M30.0811 14.8729H22.4256C22.0647 14.8729 21.7554 14.5636 21.7554 14.1769C21.7554 13.7903 22.0647 13.481 22.4256 13.481H30.0811C31.009 13.481 31.705 12.785 31.705 11.8571V5.413C31.705 5.02636 32.0143 4.71704 32.4009 4.71704C32.7876 4.71704 33.0969 5.02636 33.0969 5.413V11.8571C33.0969 13.5067 31.7308 14.8729 30.0811 14.8729Z" fill="url(#paint0_linear_4148_336)"/>
<path fill-rule="evenodd" clip-rule="evenodd" d="M31.3699 18.8166H22.4256C22.0647 18.8166 21.7554 18.5073 21.7554 18.1207C21.7554 17.7598 22.0647 17.4505 22.4256 17.4505H31.1895L37.1953 13.9192C37.5304 13.7387 37.9428 13.8418 38.149 14.1769C38.3295 14.512 38.2264 14.9244 37.8913 15.1049L31.705 18.7135C31.6019 18.7909 31.4988 18.8166 31.3699 18.8166Z" fill="url(#paint1_linear_4148_336)"/>
<path fill-rule="evenodd" clip-rule="evenodd" d="M32.4006 6.10896C30.7509 6.10896 29.3848 4.74282 29.3848 3.09315C29.3848 1.36614 30.7251 0 32.4006 0C34.1534 0 35.4937 1.34036 35.4937 3.09315C35.4937 4.7686 34.1276 6.10896 32.4006 6.10896Z" fill="url(#paint2_linear_4148_336)"/>
<path fill-rule="evenodd" clip-rule="evenodd" d="M39.3602 15.9813C37.6075 15.9813 36.2671 14.6667 36.2671 12.9655C36.2671 11.2642 37.6332 9.87231 39.3602 9.87231C41.0099 9.87231 42.3503 11.2642 42.3503 12.9655C42.3761 14.6409 41.0099 15.9813 39.3602 15.9813Z" fill="url(#paint3_linear_4148_336)"/>
<path fill-rule="evenodd" clip-rule="evenodd" d="M36.9633 22.683H22.4256C22.0647 22.683 21.7554 22.3737 21.7554 21.9871C21.7554 21.6262 22.0647 21.3169 22.4256 21.3169H36.9633C37.3242 21.3169 37.6335 21.6262 37.6335 21.9871C37.6335 22.3737 37.3242 22.683 36.9633 22.683Z" fill="url(#paint4_linear_4148_336)"/>
<path fill-rule="evenodd" clip-rule="evenodd" d="M39.3602 25.0802C37.6332 25.0802 36.2671 23.7141 36.2671 21.9871C36.2671 20.2858 37.6332 18.8939 39.3602 18.8939C41.0099 18.8939 42.3503 20.2858 42.3503 21.9871C42.3503 23.7141 41.0099 25.0802 39.3602 25.0802Z" fill="url(#paint5_linear_4148_336)"/>
<path fill-rule="evenodd" clip-rule="evenodd" d="M32.4009 39.2571C32.0143 39.2571 31.705 38.9478 31.705 38.5869V32.1429C31.705 31.2149 31.009 30.4932 30.0811 30.4932H22.4256C22.0647 30.4932 21.7554 30.1839 21.7554 29.823C21.7554 29.4364 22.0647 29.1271 22.4256 29.1271H30.0811C31.7308 29.1271 33.0969 30.4674 33.0969 32.1429V38.5869C33.0969 38.9478 32.7876 39.2571 32.4009 39.2571Z" fill="url(#paint6_linear_4148_336)"/>
<path fill-rule="evenodd" clip-rule="evenodd" d="M37.5562 30.1582C37.4273 30.1582 37.2984 30.1324 37.1953 30.0551L31.1895 26.5495H22.4256C22.0647 26.5495 21.7554 26.2402 21.7554 25.8535C21.7554 25.4927 22.0647 25.1833 22.4256 25.1833H31.3699C31.4988 25.1833 31.6019 25.2091 31.705 25.2607L37.8913 28.8693C38.2264 29.0756 38.3295 29.488 38.149 29.8231C38.0202 30.0293 37.7882 30.1582 37.5562 30.1582Z" fill="url(#paint7_linear_4148_336)"/>
<path fill-rule="evenodd" clip-rule="evenodd" d="M32.4006 44C30.7251 44 29.3848 42.6338 29.3848 40.9068C29.3848 39.2314 30.7509 37.891 32.4006 37.891C34.1276 37.891 35.4937 39.2056 35.4937 40.9068C35.4937 42.6596 34.1534 44 32.4006 44Z" fill="url(#paint8_linear_4148_336)"/>
<path fill-rule="evenodd" clip-rule="evenodd" d="M39.3602 34.102C37.6332 34.102 36.2671 32.7358 36.2671 31.0088C36.2671 29.3334 37.6075 28.0188 39.3602 28.0188C41.0099 28.0188 42.3503 29.3592 42.3503 31.0088C42.3761 32.7358 41.0099 34.102 39.3602 34.102Z" fill="url(#paint9_linear_4148_336)"/>
<path fill-rule="evenodd" clip-rule="evenodd" d="M22.4254 43.1236H17.7084C17.3217 43.1236 17.0124 42.8143 17.0124 42.4534V38.6643C14.6668 37.891 12.5274 36.6538 10.6457 34.9525L7.32057 36.9373C7.16591 37.0404 6.9597 37.0662 6.77927 37.0146C6.59883 36.9631 6.46995 36.8342 6.36685 36.6795L1.72713 28.5085C1.6498 28.3538 1.62402 28.1734 1.6498 27.9929C1.70135 27.8125 1.83023 27.6579 1.98489 27.5805L5.31002 25.6989C5.02648 24.5132 4.8976 23.2501 4.8976 21.9871C4.8976 20.724 5.02648 19.4868 5.31002 18.3011L1.98489 16.4194C1.83023 16.3163 1.70135 16.1617 1.6498 16.007C1.59825 15.8266 1.62402 15.6461 1.72713 15.4657L6.36685 7.32042C6.46995 7.13998 6.59883 7.03688 6.77927 6.98533C6.9597 6.93377 7.16591 6.95955 7.32057 7.06265L10.6457 9.02165C12.5274 7.34619 14.6668 6.10893 17.0124 5.33565V1.54654C17.0124 1.1599 17.3217 0.850586 17.7084 0.850586H22.4254C22.8121 0.850586 23.1214 1.1599 23.1214 1.54654V12.2179C17.9146 12.4499 13.7131 16.7287 13.7131 21.9871C13.7131 27.2712 17.9146 31.5243 23.1214 31.782V42.4534C23.1214 42.8143 22.8121 43.1236 22.4254 43.1236ZM23.1214 12.8881V31.0861H22.8894C18.1466 30.6994 14.409 26.7815 14.409 21.9871C14.409 17.2185 18.1466 13.2747 22.8894 12.9139L23.1214 12.8881Z" fill="url(#paint10_linear_4148_336)"/>
<defs>
<linearGradient id="paint0_linear_4148_336" x1="33.0969" y1="9.79495" x2="21.7554" y2="9.79495" gradientUnits="userSpaceOnUse">
<stop stop-color="#A121CA"/>
<stop offset="1" stop-color="#7B1FE4"/>
</linearGradient>
<linearGradient id="paint1_linear_4148_336" x1="38.2369" y1="16.324" x2="21.7554" y2="16.324" gradientUnits="userSpaceOnUse">
<stop stop-color="#A121CA"/>
<stop offset="1" stop-color="#7B1FE4"/>
</linearGradient>
<linearGradient id="paint2_linear_4148_336" x1="35.4937" y1="3.05448" x2="29.3848" y2="3.05448" gradientUnits="userSpaceOnUse">
<stop stop-color="#A121CA"/>
<stop offset="1" stop-color="#7B1FE4"/>
</linearGradient>
<linearGradient id="paint3_linear_4148_336" x1="42.3506" y1="12.9268" x2="36.2671" y2="12.9268" gradientUnits="userSpaceOnUse">
<stop stop-color="#A121CA"/>
<stop offset="1" stop-color="#7B1FE4"/>
</linearGradient>
<linearGradient id="paint4_linear_4148_336" x1="37.6335" y1="22" x2="21.7554" y2="22" gradientUnits="userSpaceOnUse">
<stop stop-color="#A121CA"/>
<stop offset="1" stop-color="#7B1FE4"/>
</linearGradient>
<linearGradient id="paint5_linear_4148_336" x1="42.3503" y1="21.9871" x2="36.2671" y2="21.9871" gradientUnits="userSpaceOnUse">
<stop stop-color="#A121CA"/>
<stop offset="1" stop-color="#7B1FE4"/>
</linearGradient>
<linearGradient id="paint6_linear_4148_336" x1="33.0969" y1="34.1921" x2="21.7554" y2="34.1921" gradientUnits="userSpaceOnUse">
<stop stop-color="#A121CA"/>
<stop offset="1" stop-color="#7B1FE4"/>
</linearGradient>
<linearGradient id="paint7_linear_4148_336" x1="38.2369" y1="27.6708" x2="21.7554" y2="27.6708" gradientUnits="userSpaceOnUse">
<stop stop-color="#A121CA"/>
<stop offset="1" stop-color="#7B1FE4"/>
</linearGradient>
<linearGradient id="paint8_linear_4148_336" x1="35.4937" y1="40.9455" x2="29.3848" y2="40.9455" gradientUnits="userSpaceOnUse">
<stop stop-color="#A121CA"/>
<stop offset="1" stop-color="#7B1FE4"/>
</linearGradient>
<linearGradient id="paint9_linear_4148_336" x1="42.3506" y1="31.0604" x2="36.2671" y2="31.0604" gradientUnits="userSpaceOnUse">
<stop stop-color="#A121CA"/>
<stop offset="1" stop-color="#7B1FE4"/>
</linearGradient>
<linearGradient id="paint10_linear_4148_336" x1="23.1214" y1="21.9871" x2="1.62402" y2="21.9871" gradientUnits="userSpaceOnUse">
<stop stop-color="#A121CA"/>
<stop offset="1" stop-color="#7B1FE4"/>
</linearGradient>
</defs>
</svg>
