<svg width="44" height="41" viewBox="0 0 44 41" fill="none" xmlns="http://www.w3.org/2000/svg">
<path d="M21.7132 24.3441C23.6657 26.2966 23.6657 29.4754 21.7132 31.4305C20.7352 32.4067 19.4522 32.8949 18.1683 32.8949C16.8844 32.8949 15.6022 32.4067 14.6259 31.4305C13.6798 30.4835 13.1581 29.2253 13.1581 27.8864C13.1581 26.5475 13.6798 25.2894 14.6268 24.3441C15.5721 23.3971 16.8302 22.8763 18.1683 22.8763C19.5063 22.8763 20.7662 23.3971 21.7132 24.3441ZM26.2782 24.2358C26.7887 25.3693 27.0576 26.6077 27.0576 27.8873C27.0576 30.2609 26.133 32.4927 24.4537 34.171C22.7754 35.8511 20.5436 36.7758 18.1691 36.7758C16.2226 36.7758 14.3716 36.1536 12.8419 35.0029L6.76522 39.6977C6.03991 40.2588 5.15733 40.5588 4.26788 40.5588C4.04702 40.5588 3.82616 40.5399 3.60702 40.5029C2.65999 40.3405 1.84788 39.83 1.37866 39.1021C0.909444 38.3742 0.778818 37.4238 1.02116 36.4939C1.30218 35.412 2.04296 34.4838 3.05358 33.9467L9.65702 30.4396C8.75382 27.4103 9.49632 23.99 11.8828 21.601C13.9951 19.4903 16.9127 18.6662 19.6541 19.1268V15.6971C19.6541 15.0362 20.0022 14.5558 20.4817 14.5558H25.4506C25.9301 14.5558 26.2782 15.0362 26.2782 15.6971V24.2358ZM26.0273 27.8873C26.0273 26.734 25.7798 25.6194 25.3105 24.6028C25.2976 24.5796 25.2873 24.5546 25.2787 24.5297C24.8963 23.7228 24.3747 22.9794 23.725 22.3297C22.1936 20.7983 20.1809 20.0326 18.1691 20.0326C16.1573 20.0326 14.1447 20.7983 12.6116 22.3297C9.5496 25.3942 9.5496 30.3795 12.6116 33.4423C14.0966 34.9273 16.0705 35.7454 18.1691 35.7454C20.2677 35.7454 22.2409 34.9273 23.725 33.4423C25.21 31.959 26.0273 29.9859 26.0273 27.8873ZM33.8699 18.5614H28.9001C28.4369 18.5614 28.0734 18.9936 28.0734 19.5462V30.5402C28.0734 31.0928 28.4369 31.5259 28.9001 31.5259H33.8699C34.3331 31.5259 34.6966 31.0928 34.6966 30.5402V19.5462C34.6966 18.9936 34.3331 18.5614 33.8699 18.5614ZM42.2866 10.6388H37.3169C36.8605 10.6388 36.4901 11.01 36.4901 11.4664V30.786C36.4901 31.2423 36.8605 31.6135 37.3169 31.6135H42.2866C42.7421 31.6135 43.1133 31.2423 43.1133 30.786V11.4664C43.1133 11.01 42.7421 10.6388 42.2866 10.6388ZM34.1088 10.2091C34.5213 10.7685 34.7654 11.4595 34.7654 12.2063C34.7654 14.0703 33.2486 15.5862 31.3855 15.5862C29.5223 15.5862 28.0047 14.0703 28.0047 12.2063C28.0047 11.6915 28.1216 11.2034 28.3287 10.766L25.4463 8.82378C24.8284 9.49151 23.9458 9.91089 22.9662 9.91089C22.252 9.91089 21.5886 9.68745 21.042 9.30761L17.2204 13.3355C17.6647 13.907 17.9294 14.6246 17.9294 15.4031C17.9294 17.2663 16.4134 18.7831 14.5494 18.7831C12.6855 18.7831 11.1695 17.2663 11.1695 15.4031C11.1695 13.54 12.6863 12.0224 14.5494 12.0224C15.2644 12.0224 15.927 12.2458 16.4736 12.6257L20.2952 8.59862C19.8509 8.02628 19.5862 7.3087 19.5862 6.53096C19.5862 4.66698 21.1022 3.15104 22.9662 3.15104C24.8301 3.15104 26.3461 4.66698 26.3461 6.53096C26.3461 7.04487 26.2301 7.533 26.0238 7.96956L28.9062 9.9126C29.5241 9.24487 30.4066 8.82636 31.3855 8.82636C32.1305 8.82636 32.8206 9.06956 33.3801 9.48034L37.1287 5.73175C36.6861 5.16026 36.4214 4.44354 36.4214 3.66581C36.4214 1.80183 37.9382 0.285889 39.8013 0.285889C41.6644 0.285889 43.1812 1.80183 43.1812 3.66581C43.1812 5.52979 41.6653 7.04573 39.8013 7.04573C39.0863 7.04573 38.4229 6.82229 37.8763 6.44159L34.1088 10.2091ZM37.4518 3.66581C37.4518 4.96175 38.5062 6.01534 39.8013 6.01534C41.0964 6.01534 42.1509 4.96175 42.1509 3.66581C42.1509 2.36987 41.0973 1.31628 39.8013 1.31628C38.5054 1.31628 37.4518 2.37073 37.4518 3.66581ZM16.899 15.4031C16.899 14.1072 15.8454 13.0528 14.5494 13.0528C13.2535 13.0528 12.1999 14.1072 12.1999 15.4031C12.1999 16.6991 13.2544 17.7527 14.5494 17.7527C15.8445 17.7527 16.899 16.6982 16.899 15.4031ZM25.3157 6.53096C25.3157 5.23503 24.2612 4.18143 22.9662 4.18143C21.6711 4.18143 20.6166 5.23503 20.6166 6.53096C20.6166 7.8269 21.6702 8.8805 22.9662 8.8805C24.2621 8.8805 25.3157 7.82604 25.3157 6.53096ZM33.735 12.2063C33.735 10.9112 32.6805 9.85675 31.3855 9.85675C30.0904 9.85675 29.0351 10.9112 29.0351 12.2063C29.0351 13.5014 30.0895 14.5558 31.3855 14.5558C32.6814 14.5558 33.735 13.5022 33.735 12.2063Z" fill="#A121CA"/>
</svg>
