<svg width="44" height="44" viewBox="0 0 44 44" fill="none" xmlns="http://www.w3.org/2000/svg">
<g clip-path="url(#clip0_4148_350)">
<path d="M43.3985 35.4737H42.1171V13.1082C42.1169 12.6806 41.9469 12.2706 41.6445 11.9682C41.3421 11.6658 40.9321 11.4958 40.5044 11.4956H37.2845C37.183 9.85765 36.6649 8.27275 35.7791 6.89119C34.8934 5.50964 33.6694 4.37722 32.2233 3.60132C30.7772 2.82541 29.1569 2.43174 27.516 2.45762C25.8751 2.4835 24.2679 2.92809 22.847 3.74921C21.471 4.545 20.313 5.66864 19.4762 7.02013C18.6394 8.37162 18.1497 9.90904 18.0507 11.4955H3.4958C3.06817 11.4958 2.65812 11.6657 2.35573 11.9681C2.05334 12.2705 1.88335 12.6805 1.8831 13.1082V35.4737H0.601596C0.442051 35.4737 0.289042 35.5371 0.176227 35.6499C0.0634118 35.7627 3.3125e-05 35.9157 3.3125e-05 36.0753V38.5065C-0.00356311 39.2894 0.285777 40.0454 0.811197 40.6259C1.06437 40.91 1.37417 41.1381 1.72071 41.2954C2.06725 41.4527 2.44286 41.5358 2.82342 41.5394H41.1742C41.5549 41.5363 41.9306 41.4534 42.2772 41.2961C42.6238 41.1387 42.9335 40.9104 43.1864 40.6259C43.7125 40.0457 44.0028 39.2898 44 38.5066V36.0755C43.9997 35.916 43.9362 35.7632 43.8235 35.6504C43.7108 35.5376 43.5579 35.4741 43.3985 35.4737ZM23.4484 4.79129C24.8931 3.95776 26.5524 3.57128 28.2167 3.6807C29.881 3.79013 31.4754 4.39055 32.7985 5.40606C34.1216 6.42157 35.1138 7.80657 35.6498 9.38596C36.1859 10.9653 36.2416 12.6682 35.8099 14.2792C35.3782 15.8903 34.4786 17.3372 33.2247 18.4369C31.9708 19.5367 30.419 20.2401 28.7654 20.458C27.1119 20.676 25.4308 20.3987 23.9348 19.6614C22.4388 18.924 21.195 17.7597 20.3606 16.3155C19.2451 14.3771 18.9437 12.0755 19.5225 9.91529C20.1013 7.75505 21.513 5.91243 23.4482 4.79138L23.4484 4.79129ZM40.9136 35.4737H27.0427V37.3324C27.0415 37.825 26.8453 38.2971 26.497 38.6454C26.1487 38.9938 25.6765 39.19 25.1839 39.1911H18.816C18.3233 39.19 17.8512 38.9938 17.5029 38.6454C17.1546 38.2971 16.9584 37.825 16.9572 37.3324V35.4737H3.08648V13.1082C3.08625 13.0544 3.09668 13.0011 3.11718 12.9514C3.13767 12.9016 3.16781 12.8564 3.20587 12.8184C3.24393 12.7803 3.28914 12.7502 3.3389 12.7297C3.38867 12.7093 3.44199 12.6988 3.4958 12.6991H18.0479C18.1453 14.2398 18.6111 15.7346 19.4063 17.0578C20.2014 18.381 21.3027 19.494 22.6175 20.3031C23.9322 21.1121 25.422 21.5937 26.9616 21.7073C28.5012 21.8209 30.0455 21.5631 31.4648 20.9557L32.2022 22.2338L31.4958 22.6406L35.0135 28.7331C35.2752 29.1775 35.7019 29.5005 36.2006 29.6318C36.6994 29.763 37.2298 29.6919 37.6763 29.4339C38.1229 29.1759 38.4494 28.752 38.5849 28.2543C38.7203 27.7567 38.6536 27.2257 38.3994 26.777L34.8821 20.6869L34.1756 21.0937L33.4383 19.8172C34.5557 18.9793 35.478 17.9089 36.1416 16.68C36.8052 15.451 37.1943 14.0927 37.282 12.6988H40.5047C40.5585 12.6986 40.6118 12.709 40.6616 12.7295C40.7114 12.7499 40.7566 12.7801 40.7946 12.8181C40.8327 12.8561 40.8628 12.9013 40.8833 12.9511C40.9038 13.0009 40.9142 13.0542 40.914 13.108L40.9136 35.4737ZM18.1608 35.4737H25.8392V37.3324C25.8388 37.506 25.7696 37.6725 25.6468 37.7953C25.524 37.9181 25.3576 37.9873 25.1839 37.9877H18.816C18.6424 37.9868 18.4762 37.9176 18.3531 37.7952C18.2921 37.7346 18.2436 37.6625 18.2106 37.5831C18.1775 37.5036 18.1606 37.4184 18.1606 37.3324L18.1608 35.4737ZM23.4836 16.112H31.849C32.1089 16.1118 32.3641 16.0432 32.5891 15.9131C32.8141 15.783 33.0009 15.596 33.1307 15.3709C33.2605 15.1458 33.3289 14.8905 33.3288 14.6306C33.3288 14.3707 33.2603 14.1154 33.1304 13.8904L31.0407 10.2678L28.9481 6.64789C28.8184 6.42278 28.6316 6.23582 28.4067 6.10582C28.1817 5.97583 27.9265 5.90738 27.6667 5.90738C27.4069 5.90738 27.1517 5.97583 26.9267 6.10582C26.7018 6.23582 26.5151 6.42278 26.3853 6.64789L24.2928 10.2678L22.2027 13.8903C22.0727 14.1153 22.0043 14.3706 22.0043 14.6305C22.0042 14.8904 22.0725 15.1457 22.2024 15.3708C22.3322 15.5959 22.519 15.7829 22.7439 15.913C22.9689 16.0431 23.2241 16.1117 23.484 16.1119L23.4836 16.112ZM27.0646 8.59686C27.0646 8.43732 27.128 8.28431 27.2408 8.17149C27.3536 8.05868 27.5066 7.9953 27.6662 7.9953C27.8257 7.9953 27.9787 8.05868 28.0915 8.17149C28.2043 8.28431 28.2677 8.43732 28.2677 8.59686V12.5555C28.2677 12.715 28.2043 12.868 28.0915 12.9809C27.9787 13.0937 27.8257 13.1571 27.6662 13.1571C27.5066 13.1571 27.3536 13.0937 27.2408 12.9809C27.128 12.868 27.0646 12.715 27.0646 12.5555V8.59686ZM27.0646 14.117C27.0646 13.9574 27.128 13.8044 27.2408 13.6916C27.3536 13.5788 27.5066 13.5154 27.6662 13.5154C27.8257 13.5154 27.9787 13.5788 28.0915 13.6916C28.2043 13.8044 28.2677 13.9574 28.2677 14.117V14.2509C28.2677 14.4105 28.2043 14.5635 28.0915 14.6763C27.9787 14.7891 27.8257 14.8525 27.6662 14.8525C27.5066 14.8525 27.3536 14.7891 27.2408 14.6763C27.128 14.5635 27.0646 14.4105 27.0646 14.2509V14.117ZM9.42738 27.8634C9.38457 27.9294 9.32916 27.9863 9.26434 28.0308C9.19952 28.0753 9.12656 28.1066 9.04962 28.1229C8.97269 28.1392 8.8933 28.1402 8.81599 28.1258C8.73869 28.1113 8.66499 28.0818 8.59911 28.0388C7.59966 27.3907 6.77817 26.503 6.20943 25.4563C5.64069 24.4096 5.34276 23.2374 5.34276 22.0462C5.34276 20.855 5.64069 19.6827 6.20943 18.636C6.77817 17.5894 7.59966 16.7016 8.59911 16.0535C8.73254 15.9669 8.8949 15.9368 9.05049 15.9699C9.20608 16.003 9.34214 16.0966 9.42875 16.23C9.51536 16.3634 9.54542 16.5258 9.51232 16.6814C9.47922 16.837 9.38566 16.973 9.25224 17.0596C8.42044 17.5988 7.73673 18.3375 7.26338 19.2085C6.79002 20.0794 6.54206 21.0549 6.54206 22.0462C6.54206 23.0375 6.79002 24.013 7.26338 24.8839C7.73673 25.7549 8.42044 26.4936 9.25224 27.0328C9.38549 27.1198 9.47877 27.2562 9.51161 27.4119C9.54444 27.5676 9.51415 27.73 9.42738 27.8634ZM18.7722 25.4518C18.2016 26.499 17.3796 27.3879 16.3801 28.0385C16.314 28.0814 16.2401 28.1108 16.1627 28.1252C16.0853 28.1395 16.0058 28.1385 15.9287 28.1221C15.8517 28.1057 15.7786 28.0743 15.7137 28.0297C15.6488 27.9851 15.5934 27.9281 15.5505 27.862C15.5076 27.796 15.4781 27.7221 15.4638 27.6447C15.4494 27.5672 15.4505 27.4877 15.4669 27.4107C15.4833 27.3336 15.5147 27.2606 15.5593 27.1957C15.6039 27.1308 15.6609 27.0753 15.7269 27.0324C16.558 26.4927 17.241 25.7538 17.7138 24.8829C18.1866 24.012 18.4342 23.0368 18.4342 22.0459C18.4342 21.0549 18.1866 20.0797 17.7138 19.2088C17.241 18.3379 16.558 17.5991 15.7269 17.0593C15.6609 17.0164 15.6039 16.9609 15.5593 16.896C15.5147 16.8311 15.4832 16.7581 15.4669 16.681C15.4505 16.604 15.4494 16.5245 15.4637 16.447C15.4781 16.3696 15.5075 16.2957 15.5504 16.2297C15.5933 16.1636 15.6488 16.1066 15.7137 16.062C15.7786 16.0174 15.8516 15.986 15.9287 15.9696C16.0057 15.9532 16.0852 15.9521 16.1627 15.9665C16.2401 15.9808 16.314 16.0103 16.3801 16.0531C17.8874 17.0321 18.9706 18.5429 19.4139 20.2847C19.8572 22.0265 19.6281 23.8713 18.7722 25.4518ZM14.9915 25.9C14.8581 25.9849 14.6966 26.0137 14.5421 25.9802C14.3875 25.9467 14.2525 25.8536 14.1662 25.7212C14.0799 25.5887 14.0493 25.4275 14.0812 25.2726C14.113 25.1177 14.2047 24.9817 14.3362 24.894C14.8121 24.5842 15.2032 24.1605 15.4739 23.6613C15.7409 23.1648 15.8807 22.6099 15.8807 22.0462C15.8807 21.4825 15.7409 20.9276 15.4739 20.4311C15.2032 19.9319 14.8121 19.5082 14.3362 19.1985C14.2028 19.1116 14.1093 18.9752 14.0764 18.8194C14.0435 18.6636 14.0739 18.5012 14.1608 18.3677C14.2477 18.2343 14.384 18.1409 14.5398 18.108C14.6956 18.0751 14.8581 18.1054 14.9915 18.1923C15.6338 18.6094 16.1618 19.1804 16.5272 19.8535C16.8927 20.5265 17.0841 21.2803 17.0841 22.0462C17.0841 22.8121 16.8927 23.5658 16.5272 24.2389C16.1618 24.9119 15.6338 25.4829 14.9915 25.9ZM9.98786 25.9C9.3455 25.4829 8.81759 24.9119 8.45212 24.2389C8.08664 23.5658 7.8952 22.8121 7.8952 22.0462C7.8952 21.2803 8.08664 20.5265 8.45212 19.8535C8.81759 19.1804 9.3455 18.6094 9.98786 18.1923C10.1213 18.1057 10.2837 18.0756 10.4392 18.1087C10.5948 18.1418 10.7309 18.2354 10.8175 18.3688C10.9041 18.5022 10.9342 18.6646 10.9011 18.8202C10.868 18.9758 10.7744 19.1118 10.641 19.1985C10.1663 19.5067 9.77623 19.9286 9.50617 20.426C9.2361 20.9233 9.09464 21.4803 9.09464 22.0462C9.09464 22.6122 9.2361 23.1691 9.50617 23.6665C9.77623 24.1638 10.1663 24.5858 10.641 24.894C10.7744 24.9806 10.8679 25.1166 10.901 25.2722C10.9341 25.4278 10.9041 25.5901 10.8175 25.7236C10.7308 25.857 10.5948 25.9505 10.4392 25.9836C10.2836 26.0167 10.1213 25.9866 9.98786 25.9ZM14.9696 31.6175C14.9692 31.7769 14.9057 31.9297 14.793 32.0424C14.6802 32.1552 14.5274 32.2187 14.368 32.219H10.6117C10.4521 32.219 10.2991 32.1556 10.1863 32.0428C10.0735 31.93 10.0101 31.777 10.0101 31.6175C10.0101 31.4579 10.0735 31.3049 10.1863 31.1921C10.2991 31.0793 10.4521 31.0159 10.6117 31.0159H11.8881V24C11.421 23.8559 11.0211 23.5492 10.7611 23.1353C10.501 22.7215 10.398 22.2281 10.4708 21.7448C10.5437 21.2615 10.7875 20.8203 11.1579 20.5015C11.5284 20.1827 12.0009 20.0074 12.4897 20.0074C12.9784 20.0074 13.451 20.1827 13.8214 20.5015C14.1919 20.8203 14.4357 21.2615 14.5085 21.7448C14.5813 22.2281 14.4783 22.7215 14.2183 23.1353C13.9582 23.5492 13.5583 23.8559 13.0912 24V31.0157H14.3677C14.4467 31.0157 14.525 31.0312 14.598 31.0614C14.6711 31.0917 14.7374 31.136 14.7933 31.1919C14.8492 31.2477 14.8936 31.3141 14.9238 31.3871C14.954 31.4601 14.9696 31.5384 14.9696 31.6175Z" fill="url(#paint0_linear_4148_350)"/>
</g>
<defs>
<linearGradient id="paint0_linear_4148_350" x1="44.0001" y1="21.9979" x2="-7.95604e-09" y2="21.9979" gradientUnits="userSpaceOnUse">
<stop stop-color="#A121CA"/>
<stop offset="1" stop-color="#7B1FE4"/>
</linearGradient>
<clipPath id="clip0_4148_350">
<rect width="44" height="44" fill="white"/>
</clipPath>
</defs>
</svg>
