<svg width="44" height="44" viewBox="0 0 44 44" fill="none" xmlns="http://www.w3.org/2000/svg">
<g clip-path="url(#clip0_4148_353)">
<path fill-rule="evenodd" clip-rule="evenodd" d="M37.6848 30.2871H32.0141H31.9883H29.2818V34.0504C29.2818 34.4628 28.9209 34.8237 28.5085 34.8237C28.0703 34.8237 27.7352 34.4628 27.7352 34.0504V30.2871H25.6473V37.8911C26.7815 38.2262 27.6063 39.283 27.6063 40.5202C27.6063 42.0153 26.3691 43.2267 24.874 43.2267C23.379 43.2267 22.1675 42.0153 22.1675 40.5202C22.1675 39.283 22.9924 38.2262 24.1008 37.8911V30.2871H21.8325V34.0504C21.8325 34.4628 21.4974 34.8237 21.0592 34.8237C20.6467 34.8237 20.2859 34.4628 20.2859 34.0504V30.2871H19.2548H18.198V37.8911C19.3322 38.2262 20.157 39.283 20.157 40.5202C20.157 42.0153 18.9455 43.2267 17.4247 43.2267C15.9297 43.2267 14.7182 42.0153 14.7182 40.5202C14.7182 39.283 15.5431 38.2262 16.6772 37.8911V30.2871H11.9859H6.31517C5.87698 30.2871 5.54189 29.952 5.54189 29.5138C5.54189 25.1318 7.26889 21.1623 10.0785 18.198L14.0996 22.2191C14.28 22.0129 14.4862 21.8067 14.6924 21.6263L10.6714 17.6052C13.6356 14.7956 17.6052 13.0686 21.9871 13.0686C26.3691 13.0686 30.3644 14.7956 33.3286 17.6052L29.3076 21.6263C29.5138 21.8067 29.72 22.0129 29.9004 22.2191L33.9215 18.198C36.7053 21.1365 38.4323 25.0803 38.4581 29.4107V29.5138C38.4581 29.952 38.123 30.2871 37.6848 30.2871ZM5.67077 18.8682C2.55185 18.8682 0 16.3164 0 13.1975C0 10.0785 2.55185 7.52668 5.67077 7.52668C8.78969 7.52668 11.3158 10.0785 11.3158 13.1975C11.3158 16.3164 8.78969 18.8682 5.67077 18.8682ZM37.0146 12.0117C37.2466 12.0117 37.4528 11.8313 37.4528 11.5993C37.4528 11.3673 37.2466 11.1611 37.0146 11.1611H36.2671C36.0351 11.1611 35.8289 11.3673 35.8289 11.5993C35.8289 11.8313 36.0351 12.0117 36.2671 12.0117H37.0146ZM24.0492 5.25838C24.2812 5.25838 24.4874 5.07794 24.4874 4.82018C24.4874 4.5882 24.2812 4.40776 24.0492 4.40776H23.3017C23.0697 4.40776 22.8635 4.5882 22.8635 4.82018C22.8635 5.07794 23.0697 5.25838 23.3017 5.25838H24.0492ZM20.6983 5.25838C20.9303 5.25838 21.1107 5.07794 21.1107 4.82018C21.1107 4.5882 20.9303 4.40776 20.6983 4.40776H19.925C19.693 4.40776 19.5126 4.5882 19.5126 4.82018C19.5126 5.07794 19.693 5.25838 19.925 5.25838H20.6983ZM23.4564 8.66084C23.6883 8.66084 23.8946 8.45463 23.8946 8.22264C23.8946 7.99066 23.6883 7.81022 23.4564 7.81022H20.5436C20.2859 7.81022 20.1054 7.99066 20.1054 8.22264C20.1054 8.45463 20.2859 8.66084 20.5436 8.66084H23.4564ZM6.80492 15.3884C6.90803 15.3884 7.01113 15.3369 7.08846 15.2595C7.26889 15.1049 7.26889 14.8214 7.08846 14.6667C6.31517 13.8676 5.02636 13.8676 4.2273 14.6667C4.07264 14.8214 4.07264 15.1049 4.2273 15.2595C4.40773 15.44 4.66549 15.44 4.82015 15.2595C5.28412 14.8214 6.03163 14.8214 6.49561 15.2595C6.57293 15.3369 6.67604 15.3884 6.80492 15.3884ZM7.73286 12.0117C7.96485 12.0117 8.14528 11.8313 8.14528 11.5993C8.14528 11.3673 7.96485 11.1611 7.73286 11.1611H6.95958C6.72759 11.1611 6.54716 11.3673 6.54716 11.5993C6.54716 11.8313 6.72759 12.0117 6.95958 12.0117H7.73286ZM4.35618 12.0117C4.58817 12.0117 4.79438 11.8313 4.79438 11.5993C4.79438 11.3673 4.58817 11.1611 4.35618 11.1611H3.60867C3.37668 11.1611 3.17047 11.3673 3.17047 11.5993C3.17047 11.8313 3.37668 12.0117 3.60867 12.0117H4.35618ZM38.3292 15.3884C38.8705 15.3884 39.3861 15.1822 39.7727 14.7956C39.9274 14.6409 39.9274 14.3574 39.7727 14.2027C39.5923 14.0223 39.3345 14.0223 39.1541 14.2027C38.7159 14.6409 37.9426 14.6409 37.5044 14.2027C37.324 14.0223 37.0662 14.0223 36.8858 14.2027C36.7311 14.3574 36.7311 14.6409 36.8858 14.7956C37.2724 15.1822 37.7879 15.3884 38.3292 15.3884ZM40.3913 12.0117C40.6233 12.0117 40.8037 11.8313 40.8037 11.5993C40.8037 11.3673 40.6233 11.1611 40.3913 11.1611H39.6438C39.3861 11.1611 39.2056 11.3673 39.2056 11.5993C39.2056 11.8313 39.3861 12.0117 39.6438 12.0117H40.3913ZM21.9871 12.0891C18.8682 12.0891 16.3421 9.56301 16.3421 6.41831C16.3421 3.29938 18.8682 0.773315 21.9871 0.773315C25.106 0.773315 27.6579 3.29938 27.6579 6.41831C27.6579 9.56301 25.106 12.0891 21.9871 12.0891ZM38.3292 18.8682C35.2103 18.8682 32.6585 16.3164 32.6585 13.1975C32.6585 10.0785 35.2103 7.52668 38.3292 7.52668C41.4482 7.52668 44 10.0785 44 13.1975C44 16.3164 41.4482 18.8682 38.3292 18.8682ZM23.0439 26.1629L24.8998 22.9409C25.1318 22.58 25.5958 22.4511 25.9566 22.6573C26.3175 22.8635 26.4464 23.3533 26.2402 23.7141L24.3843 26.9362C24.8998 27.4259 25.2607 28.0446 25.4153 28.7663H28.5085H31.1892C30.8026 24.0235 26.833 20.2859 21.9871 20.2859C17.167 20.2859 13.1974 24.0235 12.785 28.7663H17.4247H18.5589C18.9197 27.1939 20.3117 26.0082 21.9871 26.0082C22.348 26.0082 22.7088 26.0598 23.0439 26.1629Z" fill="url(#paint0_linear_4148_353)"/>
</g>
<defs>
<linearGradient id="paint0_linear_4148_353" x1="44" y1="22" x2="-7.95603e-09" y2="22" gradientUnits="userSpaceOnUse">
<stop stop-color="#A121CA"/>
<stop offset="1" stop-color="#7B1FE4"/>
</linearGradient>
<clipPath id="clip0_4148_353">
<rect width="44" height="44" fill="white"/>
</clipPath>
</defs>
</svg>
