<svg width="44" height="44" viewBox="0 0 44 44" fill="none" xmlns="http://www.w3.org/2000/svg">
<g clip-path="url(#clip0_4148_357)">
<path d="M42.7109 20.7109H33.6016V17.2734H38.4141C39.1256 17.2734 39.7031 16.6959 39.7031 15.9844C39.7031 15.2728 39.1256 14.6953 38.4141 14.6953H33.6016V11.8757C33.6016 11.1641 33.0241 10.5866 32.3125 10.5866H29.8238V5.15625H34.375C34.907 6.65672 36.3395 7.73438 38.0205 7.73438C40.1526 7.73438 41.8877 5.9993 41.8877 3.86719C41.8877 1.73508 40.1526 0 38.0205 0C36.3395 0 34.907 1.07766 34.375 2.57812H28.5347C27.8231 2.57812 27.2456 3.15563 27.2456 3.86719V10.5866H23.2891V1.28906C23.2891 0.5775 22.7116 0 22 0C21.2884 0 20.7109 0.5775 20.7109 1.28906V10.5866H16.7544V3.86719C16.7544 3.15563 16.1769 2.57812 15.4653 2.57812H9.625C9.09305 1.07766 7.66047 0 5.97953 0C3.84742 0 2.11234 1.73508 2.11234 3.86719C2.11234 5.9993 3.84742 7.73438 5.97953 7.73438C7.66047 7.73438 9.09305 6.65672 9.625 5.15625H14.1763V10.5866H11.6875C10.9759 10.5866 10.3984 11.1641 10.3984 11.8757V14.6953H5.58594C4.87437 14.6953 4.29688 15.2728 4.29688 15.9844C4.29688 16.6959 4.87437 17.2734 5.58594 17.2734H10.3984V20.7109H1.28906C0.5775 20.7109 0 21.2884 0 22C0 22.7116 0.5775 23.2891 1.28906 23.2891H10.3984V26.7266H5.58594C4.87437 26.7266 4.29688 27.3041 4.29688 28.0156C4.29688 28.7272 4.87437 29.3047 5.58594 29.3047H10.3984V32.1243C10.3984 32.8359 10.9759 33.4134 11.6875 33.4134H14.1763V38.8438H9.625C9.09305 37.3433 7.66047 36.2656 5.97953 36.2656C3.84742 36.2656 2.11234 38.0007 2.11234 40.1328C2.11234 42.2649 3.84742 44 5.97953 44C7.66047 44 9.09305 42.9223 9.625 41.4219H15.4653C16.1769 41.4219 16.7544 40.8444 16.7544 40.1328V33.4134H20.7109V42.7109C20.7109 43.4225 21.2884 44 22 44C22.7116 44 23.2891 43.4225 23.2891 42.7109V33.4134H27.2456V40.1328C27.2456 40.8444 27.8231 41.4219 28.5347 41.4219H34.375C34.907 42.9223 36.3395 44 38.0205 44C40.1526 44 41.8877 42.2649 41.8877 40.1328C41.8877 38.0007 40.1526 36.2656 38.0205 36.2656C36.3395 36.2656 34.907 37.3433 34.375 38.8438H29.8238V33.4134H32.3125C33.0241 33.4134 33.6016 32.8359 33.6016 32.1243V29.3047H38.4141C39.1256 29.3047 39.7031 28.7272 39.7031 28.0156C39.7031 27.3041 39.1256 26.7266 38.4141 26.7266H33.6016V23.2891H42.7109C43.4225 23.2891 44 22.7116 44 22C44 21.2884 43.4225 20.7109 42.7109 20.7109ZM18.1328 23.9929V26.5384C18.1328 27.2499 17.5553 27.8274 16.8438 27.8274C16.1322 27.8274 15.5547 27.2499 15.5547 26.5384V20.0398C15.5547 17.9077 17.2898 16.1726 19.4219 16.1726C21.554 16.1726 23.2891 17.9077 23.2891 20.0398V26.5384C23.2891 27.2499 22.7116 27.8274 22 27.8274C21.2884 27.8274 20.7109 27.2499 20.7109 26.5384V23.9929H18.1328ZM28.4453 26.5384C28.4453 27.2499 27.8678 27.8274 27.1562 27.8274C26.4447 27.8274 25.8672 27.2499 25.8672 26.5384V17.4616C25.8672 16.7501 26.4447 16.1726 27.1562 16.1726C27.8678 16.1726 28.4453 16.7501 28.4453 17.4616V26.5384Z" fill="url(#paint0_linear_4148_357)"/>
<path d="M20.7109 20.0398V21.4148H18.1328V20.0398C18.1328 19.3291 18.7112 18.7507 19.4219 18.7507C20.1326 18.7507 20.7109 19.3291 20.7109 20.0398Z" fill="url(#paint1_linear_4148_357)"/>
</g>
<defs>
<linearGradient id="paint0_linear_4148_357" x1="44" y1="22" x2="-7.95603e-09" y2="22" gradientUnits="userSpaceOnUse">
<stop stop-color="#A121CA"/>
<stop offset="1" stop-color="#7B1FE4"/>
</linearGradient>
<linearGradient id="paint1_linear_4148_357" x1="20.7109" y1="20.0828" x2="18.1328" y2="20.0828" gradientUnits="userSpaceOnUse">
<stop stop-color="#A121CA"/>
<stop offset="1" stop-color="#7B1FE4"/>
</linearGradient>
<clipPath id="clip0_4148_357">
<rect width="44" height="44" fill="white"/>
</clipPath>
</defs>
</svg>
