<svg width="44" height="44" viewBox="0 0 44 44" fill="none" xmlns="http://www.w3.org/2000/svg">
<path fill-rule="evenodd" clip-rule="evenodd" d="M34.4056 7.71242H38.5986C38.9293 7.71242 39.1974 7.99032 39.1974 8.33308V41.8614C39.1974 42.2042 38.9293 42.4821 38.5986 42.4821H34.4056C34.0749 42.4821 33.8067 42.2042 33.8067 41.8614V8.33308C33.8067 7.99032 34.0749 7.71242 34.4056 7.71242ZM20.8006 21.185C20.0392 21.9463 19.0363 22.4661 17.9166 22.6194C17.8754 22.625 17.8451 22.6597 17.8451 22.7013V26.5904C17.8451 26.6359 17.8822 26.6731 17.9278 26.6731H18.5584C18.5949 26.6731 18.6258 26.6505 18.6371 26.6159L19.3087 24.5489L19.3099 24.5493C19.3663 24.3762 19.4983 24.2295 19.6821 24.161C20.315 23.9245 21.1337 23.4752 21.6389 23.0363C21.6396 23.0357 21.6401 23.0352 21.6407 23.0346C21.7834 22.9029 21.9856 22.84 22.19 22.8834L24.3187 23.3358C24.3544 23.3433 24.3894 23.3278 24.4076 23.2962L25.7405 20.985C25.7588 20.9534 25.7547 20.9154 25.7303 20.8883L24.2754 19.2725L24.276 19.272C24.155 19.1374 24.0937 18.9512 24.125 18.7585C24.2371 18.075 24.2563 17.1682 24.1302 16.4892C24.1301 16.4886 24.13 16.488 24.1299 16.4872C24.0906 16.3002 24.1381 16.0977 24.2756 15.9448L25.7311 14.3283C25.7555 14.3012 25.7596 14.2631 25.7413 14.2315L24.4063 11.9215C24.3881 11.89 24.3531 11.8745 24.3174 11.882L22.1891 12.3344L22.1889 12.3331C22.0113 12.3706 21.8189 12.33 21.6678 12.2059C21.1459 11.7764 20.3542 11.2901 19.7165 11.07C19.7157 11.0697 19.715 11.0694 19.7141 11.0692C19.5287 11.0114 19.3732 10.8677 19.3087 10.669L18.6377 8.60394C18.6265 8.56927 18.5955 8.54674 18.559 8.54674H17.9276C17.8821 8.54674 17.8449 8.58388 17.8449 8.62946V12.5161C17.8449 12.5577 17.8752 12.5924 17.9165 12.598C20.3956 12.9372 22.2817 15.0642 22.2817 17.6085C22.2819 19.0054 21.7158 20.2698 20.8006 21.185ZM7.35172 21.9466C7.68383 22.0269 7.8879 22.3612 7.80756 22.6934C7.42616 24.2692 8.90061 25.6809 10.4593 25.2239C10.654 25.1668 10.8378 25.0819 11.006 24.9736L11.0062 24.974C11.4003 24.7204 11.9357 24.9841 11.9588 25.4658C12.0694 27.777 14.4286 29.2691 16.551 28.4466C16.5834 28.434 16.6038 28.4043 16.6038 28.3694V18.2186C16.6038 18.1731 16.5666 18.1359 16.5211 18.1359H13.075C13.0354 18.1359 13.0021 18.1629 12.994 18.2018C12.7437 19.3978 11.8478 20.3779 10.6713 20.729C10.3433 20.8268 9.99805 20.6401 9.90028 20.312C9.80252 19.9839 9.98925 19.6387 10.3173 19.541C11.7267 19.1205 12.2766 17.4208 11.4077 16.2533C11.1399 15.8936 10.7592 15.6218 10.3173 15.4897C9.98925 15.3919 9.8026 15.0467 9.90028 14.7186C9.99805 14.3906 10.3433 14.2039 10.6713 14.3016C11.8478 14.6527 12.7437 15.6329 12.994 16.8289C13.0021 16.8676 13.0354 16.8947 13.075 16.8947H16.5211C16.5666 16.8947 16.6038 16.8576 16.6038 16.812V6.66117C16.6038 6.62632 16.5834 6.59658 16.5509 6.58399C15.3335 6.11302 13.9462 6.39039 13.0041 7.28694C12.4001 7.86175 12.0087 8.65745 11.9599 9.5437C11.9599 9.54422 11.9598 9.54475 11.9598 9.54528C11.9417 10.0562 11.3973 10.3085 11.0059 10.0569C9.52268 9.10378 7.55139 10.3008 7.76435 12.0896C7.78608 12.2723 7.83712 12.3983 7.82208 12.5457C7.78732 12.8858 7.48328 13.1333 7.14325 13.0985C5.43182 12.9215 4.25033 14.7433 5.06653 16.2224C5.43217 16.885 5.81295 16.9118 5.98516 17.1855C6.16724 17.4748 6.08047 17.8569 5.79121 18.039C4.64976 18.7585 4.46285 20.3615 5.42452 21.3232C5.87094 21.7696 6.49873 21.9964 7.14325 21.9323C7.21118 21.9254 7.28149 21.9296 7.35172 21.9466ZM27.5983 6.03742L29.8576 3.77811C29.8818 3.75391 29.9162 3.74714 29.9478 3.76016C29.9794 3.77327 29.9989 3.8024 29.9989 3.83663V12.4056C29.9989 23.9743 20.5314 33.4416 8.96273 33.4416H6.14339C5.80063 33.4416 5.52273 33.7195 5.52273 34.0623C5.52273 34.405 5.80063 34.6829 6.14339 34.6829H8.96282C21.2166 34.6829 31.2403 24.6594 31.2403 12.4055V3.83654C31.2403 3.8024 31.2598 3.77318 31.2913 3.76007C31.3229 3.74705 31.3573 3.75382 31.3815 3.77802L33.6409 6.03734C33.8833 6.27969 34.2763 6.27969 34.5186 6.03734C34.761 5.79498 34.761 5.40198 34.5186 5.15962L31.0585 1.69946C30.8161 1.45711 30.4231 1.45711 30.1808 1.69946L26.7206 5.15962C26.4783 5.40198 26.4783 5.79498 26.7206 6.03734C26.963 6.27969 27.356 6.27978 27.5983 6.03742ZM29.9847 30.2139V41.8614C29.9847 42.2042 29.7166 42.4821 29.3859 42.4821H25.1929C24.8622 42.4821 24.5941 42.2042 24.5941 41.8614V30.2139C24.5941 29.8712 24.8622 29.5933 25.1929 29.5933H29.3859C29.7166 29.5933 29.9847 29.8712 29.9847 30.2139ZM20.7722 36.3136V41.8614C20.7722 42.2042 20.504 42.4821 20.1733 42.4821H15.9804C15.6497 42.4821 15.3815 42.2042 15.3815 41.8614V36.3136C15.3815 35.9709 15.6497 35.693 15.9804 35.693H20.1733C20.504 35.693 20.7722 35.9709 20.7722 36.3136ZM6.76784 36.8945H10.9608C11.2915 36.8945 11.5596 37.1724 11.5596 37.5152V41.8614C11.5596 42.2042 11.2915 42.4821 10.9608 42.4821H6.76784C6.43713 42.4821 6.169 42.2042 6.169 41.8614V37.5152C6.169 37.1724 6.43713 36.8945 6.76784 36.8945Z" fill="url(#paint0_linear_4148_362)"/>
<defs>
<linearGradient id="paint0_linear_4148_362" x1="39.1974" y1="21.9999" x2="4.80225" y2="21.9999" gradientUnits="userSpaceOnUse">
<stop stop-color="#A121CA"/>
<stop offset="1" stop-color="#7B1FE4"/>
</linearGradient>
</defs>
</svg>
