<svg width="53" height="38" viewBox="0 0 53 38" fill="none" xmlns="http://www.w3.org/2000/svg">
<path d="M52.5 23.4375C52.5 31.207 46.207 37.5 38.4375 37.5H37.5C35.4258 37.5 33.75 35.8242 33.75 33.75C33.75 31.6758 35.4258 30 37.5 30H38.4375C42.0586 30 45 27.0586 45 23.4375V22.5H37.5C33.3633 22.5 30 19.1367 30 15V7.5C30 3.36328 33.3633 0 37.5 0H45C49.1367 0 52.5 3.36328 52.5 7.5V11.25V15V23.4375ZM22.5 23.4375C22.5 31.207 16.207 37.5 8.4375 37.5H7.5C5.42578 37.5 3.75 35.8242 3.75 33.75C3.75 31.6758 5.42578 30 7.5 30H8.4375C12.0586 30 15 27.0586 15 23.4375V22.5H7.5C3.36328 22.5 0 19.1367 0 15V7.5C0 3.36328 3.36328 0 7.5 0H15C19.1367 0 22.5 3.36328 22.5 7.5V11.25V15V23.4375Z" fill="#7444FD"/>
</svg>
